<?xml version="1.0" standalone="no"?><svg xmlns="http://www.w3.org/2000/svg" viewBox="0 0 1440 320"><path fill="#0099ff" fill-opacity="0.7" d="M0,192L21.8,165.3C43.6,139,87,85,131,96C174.5,107,218,181,262,224C305.5,267,349,277,393,240C436.4,203,480,117,524,96C567.3,75,611,117,655,165.3C698.2,213,742,267,785,282.7C829.1,299,873,277,916,245.3C960,213,1004,171,1047,165.3C1090.9,160,1135,192,1178,192C1221.8,192,1265,160,1309,144C1352.7,128,1396,128,1418,128L1440,128L1440,0L1418.2,0C1396.4,0,1353,0,1309,0C1265.5,0,1222,0,1178,0C1134.5,0,1091,0,1047,0C1003.6,0,960,0,916,0C872.7,0,829,0,785,0C741.8,0,698,0,655,0C610.9,0,567,0,524,0C480,0,436,0,393,0C349.1,0,305,0,262,0C218.2,0,175,0,131,0C87.3,0,44,0,22,0L0,0Z"></path></svg>