<?xml version="1.0" standalone="no"?><svg xmlns="http://www.w3.org/2000/svg" viewBox="0 0 1440 320"><path fill="#0099ff" fill-opacity="0.7" d="M0,192L21.8,165.3C43.6,139,87,85,131,96C174.5,107,218,181,262,224C305.5,267,349,277,393,240C436.4,203,480,117,524,96C567.3,75,611,117,655,165.3C698.2,213,742,267,785,282.7C829.1,299,873,277,916,245.3C960,213,1004,171,1047,165.3C1090.9,160,1135,192,1178,192C1221.8,192,1265,160,1309,144C1352.7,128,1396,128,1418,128L1440,128L1440,320L1418.2,320C1396.4,320,1353,320,1309,320C1265.5,320,1222,320,1178,320C1134.5,320,1091,320,1047,320C1003.6,320,960,320,916,320C872.7,320,829,320,785,320C741.8,320,698,320,655,320C610.9,320,567,320,524,320C480,320,436,320,393,320C349.1,320,305,320,262,320C218.2,320,175,320,131,320C87.3,320,44,320,22,320L0,320Z"></path></svg>